<?xml version="1.0" encoding="utf-8" ?>
<svg baseProfile="full" height="200mm" version="1.1" viewBox="0,0,200,200" width="200mm" xmlns="http://www.w3.org/2000/svg" xmlns:ev="http://www.w3.org/2001/xml-events" xmlns:xlink="http://www.w3.org/1999/xlink"><defs /><rect fill="#1a1a1a" height="200" width="200" x="0" y="0" /><text alignment-baseline="middle" fill="#e1ed5e" style="dominant-baseline: central; font-size:9.0px; font-family:Arial;" text-anchor="middle" x="100.0" y="100.0">2024</text><line stroke="#e1ed5e" stroke-width="0.3" x1="100.0" x2="100.0" y1="15.0" y2="10.0" /><path d="M 100.0 14.0 a86.0,86.0 0 0,1 42.35913384403234,11.155469271406648" fill="none" id="id25" stroke="none" /><text fill="#e1ed5e" style="font-size:6.75px; font-family:Arial;" text-anchor="middle"><textPath startOffset="22.145653131862478" xlink:href="#id25">January</textPath></text><path d="M 100.0 79.0 l 0.0 -4.678132220379496 a25.678132220379496,25.678132220379496 0 0,0 0.4407992851800106,0.0037837317132953913 l -0.08030636033115579 4.677442886860635" fill="#ff0000" stroke="none" /><path d="M 101.08105385017728 79.02784411241856 l 0.37786883837478535 -7.330554515999156 a28.340287076882642,28.340287076882642 0 0,0 0.48563868413350514,0.02921481729023607 l -0.5036518746407528 7.322987720884228" fill="#ff2904" stroke="none" /><path d="M 101.80034050326958 79.07731436759882 l 0.4582705608500928 -5.325798570791214 a26.34547868049098,26.34547868049098 0 0,0 0.4502573238694784,0.04263983670121418 l -0.5496274481045842 5.317146978584816" fill="#ff0a01" stroke="none" /><path d="M 102.15924093988457 79.11130261209362 l 4.583270965806086 -44.338988985925226 a65.57524332003135,65.57524332003135 0 0,0 1.1187264488266386,0.12535563203109515 l -5.343733316233521 44.253777593387156" fill="#35ff62" stroke="none" /><path d="M 103.23170211078529 79.25015418208739 l 2.1089283020903067 -13.54083254250576 a34.7040769308823,34.7040769308823 0 0,0 0.5878581380996089,0.0967318329180336 l -2.341063943242986 13.502634711092057" fill="#ff860c" stroke="none" /><path d="M 103.58742460773223 79.30868818359171 l 2.7327152332093916 -15.761575274338124 a36.99671802822196,36.99671802822196 0 0,0 0.6248309932007562,0.11386502117668283 l -3.0028809599612014 15.712342079230075" fill="#ffa60f" stroke="none" /><path d="M 103.94208987418118 79.37332000966035 l 11.82626962254352 -61.88003997101897 a84.0,84.0 0 0,0 1.4140140578761722,0.2828424133485634 l -12.88678016595065 61.66790816100754" fill="#4dd2ff" stroke="none" /><path d="M 104.29559338865022 79.4440306129975 l 3.2225364208165863 -15.42100334492353 a36.75411327709789,36.75411327709789 0 0,0 0.6164847638110267,0.13435998494623488 l -3.486783601246747 15.363411901843577" fill="#ffa30f" stroke="none" /><path d="M 104.64783097203109 79.52079915486377 l 4.223663232801387 -18.610239521889945 a40.083509796843785,40.083509796843785 0 0,0 0.6697149882364191,0.15805091368442314 l -4.542510374777692 18.53499246455929" fill="#ffd113" stroke="none" /><path d="M 105.3480935250658 79.69241777938227 l 2.671515780739476 -10.144180560188905 a31.49006176361486,31.49006176361486 0 0,0 0.5215632936714533,0.14215439497910168 l -2.845260475345622 10.09682567106566" fill="#ff5808" stroke="none" /><path d="M 105.69591212413111 79.78721728523813 l 12.192503514886788 -43.26689368175095 a65.95198806313762,65.95198806313762 0 0,0 1.0870771586468109,0.3164323176498245 l -12.933440685915203 43.05121766979861" fill="#35ff67" stroke="none" /><path d="M 106.04205211174951 79.88797359093562 l 6.367460563736925 -21.195205312367275 a43.13100273968956,43.13100273968956 0 0,0 0.7072649908119755,0.21911250207575964 l -6.730366187420531 21.08277622248487" fill="#fff917" stroke="none" /><path d="M 106.38641147887787 79.99465700312896 l 3.1898965418075624 -9.992305483987645 a31.489118591796235,31.489118591796235 0 0,0 0.5135384347239977,0.16881028366318537 l -3.360957714179303 9.936074278922439" fill="#ff5808" stroke="none" /><path d="M 106.72888874123014 80.10723608172694 l 3.3665654665848175 -9.95265260247704 a31.506619668875164,31.506619668875164 0 0,0 0.5108486733154709,0.17769968657365962 l -3.5369199119453065 9.89339448333479" fill="#ff5808" stroke="none" /><path d="M 107.06938296918511 80.22567764915836 l 11.055657319142243 -30.924641171952313 a53.841452318256444,53.841452318256444 0 0,0 0.867644359771198,0.31861102703462435 l -11.584890830567566 30.730299295908964" fill="#83ff25" stroke="none" /><path d="M 107.74402155503746 80.48000691201159 l 3.872210444387956 -9.760499834936699 a31.50054145048847,31.50054145048847 0 0,0 0.5009269184512505,0.20372261683945317 l -4.039191824029646 9.692589961517951" fill="#ff5808" stroke="none" /><path d="M 108.07796709384702 80.6158196554323 l 2.021107600688373 -4.849922483264557 a26.254200607821836,26.254200607821836 0 0,0 0.41452247861870944,0.17693499709211133 l -2.1040651544775124 4.814512836513044" fill="#ff0901" stroke="none" /><path d="M 108.4095320186766 80.7573450057729 l 9.556317541669674 -21.866724695409214 a44.863714167372244,44.863714167372244 0 0,0 0.7030498585999105,0.3144652593185571 l -9.930280803125216 21.699455685180805" fill="#efff19" stroke="none" /><path d="M 108.73861861582097 80.90454125486305 l 9.218065717198831 -20.143137188073148 a43.15217170717426,43.15217170717426 0 0,0 0.6709367182546248,0.3140322617240844 l -9.562491149324961 19.98192869477853" fill="#fff917" stroke="none" /><path d="M 110.02825361518725 81.54914285379988 l 8.511428606037716 -15.660069972926257 a38.82364184089839,38.82364184089839 0 0,0 0.5828275584423436,0.3232846219516966 l -8.77900035263616 15.511652435541414" fill="#ffc011" stroke="none" /><line stroke="#e1ed5e" stroke-width="0.3" x1="143.13028292997686" x2="145.6673583964461" y1="26.7553504044142" y2="22.446841604673864" /><path d="M 143.63769802327073 25.89364864446614 a86.0,86.0 0 0,1 29.32050498858742,28.57503671076993" fill="none" id="id26" stroke="none" /><text fill="#e1ed5e" style="font-size:6.75px; font-family:Arial;" text-anchor="middle"><textPath startOffset="20.669276256404974" xlink:href="#id26">February</textPath></text><path d="M 110.96478420261332 82.08984904055464 l 11.56166485400158 -18.88511064616567 a43.14315917646295,43.14315917646295 0 0,0 0.6283202701665549,0.3921183189501891 l -11.884149252957847 18.683856530373937" fill="#fff917" stroke="none" /><path d="M 111.27062007382361 82.28071324371311 l 9.294165585735298 -14.61197202064735 a38.31736816803429,38.31736816803429 0 0,0 0.5519787811870651,0.3577859771470152 l -9.543629999179371 14.45027220179644" fill="#ffb911" stroke="none" /><path d="M 111.5731344415666 82.4767994020092 l 8.665888867857603 -13.121260256509068 a36.724665356983046,36.724665356983046 0 0,0 0.5230706536509098,0.3519452796779083 l -8.889855809605514 12.970565302774041" fill="#ffa30f" stroke="none" /><path d="M 111.8722381534696 82.67804972795209 l 5.946674801709607 -8.676376254223861 a31.518671308779815,31.518671308779815 0 0,0 0.44367018850266954,0.3097162487381394 l -6.094740081386036 8.573015189680595" fill="#ff5808" stroke="none" /><path d="M 112.16784306229584 82.88440491214696 l 6.079924031293798 -8.552174559761074 a31.493100872808206,31.493100872808206 0 0,0 0.43793254747943633,0.3170293919800763 l -6.2258375891472015 8.446544396407923" fill="#ff5808" stroke="none" /><path d="M 112.7482090630111 83.31218511350987 l 12.758918048056458 -16.70183329167753 a42.01764080623724,42.01764080623724 0 0,0 0.5694191773021068,0.4427837963712213 l -13.04374716999379 16.48034844368552" fill="#ffea16" stroke="none" /><path d="M 113.03279911837588 83.53348406188908 l 6.5655790742280145 -8.29539467974059 a31.579243898909283,31.579243898909283 0 0,0 0.4221832570181977,0.3400809470691637 l -6.707013101601471 8.18146543887802" fill="#ff5908" stroke="none" /><path d="M 113.31354834802062 83.75963576809568 l 6.660439390019274 -8.124653083527313 a31.505781293925274,31.505781293925274 0 0,0 0.41531470878288806,0.34647030124615974 l -6.798928432964055 8.009120598369284" fill="#ff5808" stroke="none" /><path d="M 113.59037401385872 83.9905735841838 l 6.785974734366599 -7.993861173993093 a31.485765091996676,31.485765091996676 0 0,0 0.40904584821251944,0.35332406132221483 l -6.922200062341979 7.876192980206158" fill="#ff5808" stroke="none" /><path d="M 114.13192950727249 84.46653392183569 l 17.107739436353487 -18.804402475395577 a46.42204360547805,46.42204360547805 0 0,0 0.5848519377511628,0.5413302222500304 l -17.428021145418615 18.50795450701317" fill="#dbff1b" stroke="none" /><path d="M 114.39649973595853 84.71141617570332 l 9.44206999248832 -10.02715112719187 a34.77303327051066,34.77303327051066 0 0,0 0.43106558620165886,0.41295108048313517 l -9.61280806455529 9.863587916403153" fill="#ff870c" stroke="none" /><line stroke="#e1ed5e" stroke-width="0.3" x1="172.87174338648825" x2="177.1583165268699" y1="56.24261187166439" y2="53.66864786411523" /><path d="M 173.72905801456457 55.72781907015455 a86.0,86.0 0 0,1 12.242430191666344,42.057860355516425" fill="none" id="id27" stroke="none" /><text fill="#e1ed5e" style="font-size:6.75px; font-family:Arial;" text-anchor="middle"><textPath startOffset="22.145653131862474" xlink:href="#id27">March</textPath></text><line stroke="#e1ed5e" stroke-width="0.3" x1="184.99686870605535" x2="189.99668451229388" y1="99.2704041080226" y2="99.22748670261217" /><path d="M 185.99683186730306 99.26182062694052 a86.0,86.0 0 0,1 -10.086455211305974,41.156179273409016" fill="none" id="id28" stroke="none" /><text fill="#e1ed5e" style="font-size:6.75px; font-family:Arial;" text-anchor="middle"><textPath startOffset="21.40746469413373" xlink:href="#id28">April</textPath></text><line stroke="#e1ed5e" stroke-width="0.3" x1="174.33088141563837" x2="178.70328620479359" y1="141.23008692659167" y2="143.65538615756765" /><path d="M 175.20536237346943 141.71514677278685 a86.0,86.0 0 0,1 -30.301960400862466,31.631185727798858" fill="none" id="id29" stroke="none" /><text fill="#e1ed5e" style="font-size:6.75px; font-family:Arial;" text-anchor="middle"><textPath startOffset="22.145653131862474" xlink:href="#id29">May</textPath></text><line stroke="#e1ed5e" stroke-width="0.3" x1="143.1302829299769" x2="145.66735839644613" y1="173.24464959558577" y2="177.55315839532614" /><path d="M 143.63769802327073 174.10635135553383 a86.0,86.0 0 0,1 -40.68552437913181,11.842963189579606" fill="none" id="id30" stroke="none" /><text fill="#e1ed5e" style="font-size:6.75px; font-family:Arial;" text-anchor="middle"><textPath startOffset="21.407464694133747" xlink:href="#id30">June</textPath></text><line stroke="#e1ed5e" stroke-width="0.3" x1="101.45913802915013" x2="101.54496967792366" y1="184.9874750549273" y2="189.98673829345242" /><path d="M 101.47630435890484 185.9873277026323 a86.0,86.0 0 0,1 -42.54439059252881,-10.42667462771756" fill="none" id="id31" stroke="none" /><text fill="#e1ed5e" style="font-size:6.75px; font-family:Arial;" text-anchor="middle"><textPath startOffset="22.145653131862474" xlink:href="#id31">July</textPath></text><line stroke="#e1ed5e" stroke-width="0.3" x1="58.13341422392154" x2="55.67067388415222" y1="173.97424548756322" y2="178.32567169271397" /><path d="M 57.64086615596768 174.84453072859336 a86.0,86.0 0 0,1 -31.369924170532247,-30.572349798747897" fill="none" id="id32" stroke="none" /><text fill="#e1ed5e" style="font-size:6.75px; font-family:Arial;" text-anchor="middle"><textPath startOffset="22.145653131862474" xlink:href="#id32">August</textPath></text><line stroke="#e1ed5e" stroke-width="0.3" x1="26.387840678322732" x2="22.057713659400548" y1="142.50000000000003" y2="145.00000000000006" /><path d="M 25.521815274538298 143.00000000000003 a86.0,86.0 0 0,1 -11.493303480769221,-40.785679425670985" fill="none" id="id33" stroke="none" /><text fill="#e1ed5e" style="font-size:6.75px; font-family:Arial;" text-anchor="middle"><textPath startOffset="21.40746469413373" xlink:href="#id33">September</textPath></text><line stroke="#e1ed5e" stroke-width="0.3" x1="15.003131293944662" x2="10.003315487706104" y1="100.72959589197737" y2="100.7725132973878" /><path d="M 14.003168132696942 100.73817937305945 a86.0,86.0 0 0,1 10.791469493833604,-42.45332614584628" fill="none" id="id34" stroke="none" /><text fill="#e1ed5e" style="font-size:6.75px; font-family:Arial;" text-anchor="middle"><textPath startOffset="22.145653131862435" xlink:href="#id34">October</textPath></text><line stroke="#e1ed5e" stroke-width="0.3" x1="26.387840678322718" x2="22.05771365940052" y1="57.49999999999999" y2="54.99999999999999" /><path d="M 25.521815274538284 56.99999999999999 a86.0,86.0 0 0,1 29.574782752854787,-30.34633250058573" fill="none" id="id35" stroke="none" /><text fill="#e1ed5e" style="font-size:6.75px; font-family:Arial;" text-anchor="middle"><textPath startOffset="21.40746469413373" xlink:href="#id35">November</textPath></text><line stroke="#e1ed5e" stroke-width="0.3" x1="56.869717070023135" x2="54.33264160355391" y1="26.7553504044142" y2="22.446841604673864" /><path d="M 56.362301976729285 25.89364864446614 a86.0,86.0 0 0,1 42.16139366436587,-11.88097634709845" fill="none" id="id36" stroke="none" /><text fill="#e1ed5e" style="font-size:6.75px; font-family:Arial;" text-anchor="middle"><textPath startOffset="22.145653131862474" xlink:href="#id36">December</textPath></text></svg>